<?xml version="1.0" standalone="no"?>
<!DOCTYPE svg PUBLIC "-//W3C//DTD SVG 20010904//EN"
 "http://www.w3.org/TR/2001/REC-SVG-20010904/DTD/svg10.dtd">
<svg version="1.0" xmlns="http://www.w3.org/2000/svg"
 width="500.000000pt" height="500.000000pt" viewBox="0 0 500.000000 500.000000"
 preserveAspectRatio="xMidYMid meet">
<metadata>
Created by potrace 1.16, written by Peter Selinger 2001-2019
</metadata>
<g transform="translate(0.000000,500.000000) scale(0.100000,-0.100000)"
fill="#000000" stroke="none">
<path d="M1805 4120 c-85 -12 -167 -45 -260 -105 -202 -130 -322 -317 -313
-486 3 -56 2 -57 -41 -93 -96 -81 -153 -181 -176 -312 -8 -48 -15 -98 -15
-111 0 -14 -16 -47 -35 -73 -19 -26 -50 -78 -67 -116 -31 -65 -33 -76 -33
-179 0 -99 3 -116 27 -169 16 -32 44 -80 63 -106 l35 -48 4 -143 c5 -206 40
-317 143 -452 66 -85 200 -178 298 -207 37 -11 44 -19 80 -88 45 -89 136 -185
205 -219 35 -17 49 -31 59 -58 17 -49 115 -146 173 -173 98 -45 220 -54 356
-26 65 14 116 15 322 9 350 -10 548 16 593 77 40 53 -2 151 -121 283 -82 92
-157 195 -198 273 -48 92 -58 195 -26 259 60 118 232 187 339 137 33 -16 50
-34 183 -192 120 -142 220 -202 337 -202 l53 0 -7 158 c-5 86 -8 262 -8 390 0
127 -1 232 -2 232 -1 0 -23 -13 -47 -29 -63 -40 -123 -54 -203 -49 -120 8
-219 73 -272 180 -28 55 -31 70 -31 152 0 109 17 152 87 227 74 79 122 99 240
99 115 0 152 -14 228 -82 l51 -46 28 112 c16 61 40 142 52 180 l24 68 -49 55
c-26 29 -61 79 -77 111 -27 53 -29 66 -31 182 -1 124 -1 124 -30 148 -65 54
-203 138 -297 182 -228 107 -362 138 -638 146 -193 5 -199 5 -295 -22 -54 -15
-110 -36 -125 -46 -14 -10 -29 -18 -32 -18 -4 0 -30 17 -59 38 -107 79 -232
134 -329 147 -86 12 -104 12 -163 5z m222 -185 c43 -14 100 -39 126 -55 l48
-31 -23 -18 c-13 -11 -32 -34 -42 -52 l-19 -34 24 21 c58 52 103 57 142 16 27
-28 27 -29 27 -180 0 -148 -1 -154 -29 -210 -16 -31 -40 -67 -53 -79 -35 -33
-95 -55 -132 -49 l-31 6 30 -15 c45 -21 133 -19 178 5 l37 20 0 -434 0 -433
-52 -49 c-70 -66 -112 -90 -188 -110 -59 -15 -68 -15 -124 1 -34 9 -76 28 -94
42 -60 45 -45 17 19 -36 138 -115 263 -144 388 -90 24 10 45 19 47 19 2 0 4
-93 4 -207 l-1 -208 -50 -25 c-93 -45 -139 -124 -138 -235 1 -61 2 -64 8 -28
10 60 53 118 114 153 28 16 55 30 60 30 4 0 7 -123 7 -274 l0 -274 -50 -11
c-185 -40 -349 36 -378 176 -7 33 -13 39 -56 55 -95 34 -163 98 -200 191 -23
57 4 239 49 328 33 66 98 119 145 119 13 0 19 4 14 11 -9 15 -97 3 -149 -20
-74 -33 -142 -135 -166 -248 -6 -32 -16 -53 -24 -53 -7 0 -48 18 -92 40 -178
89 -273 252 -273 471 l0 87 48 -15 c83 -25 168 2 243 79 58 60 71 89 23 50
-56 -44 -111 -58 -170 -43 -108 27 -202 99 -246 189 -50 102 -21 246 68 335
34 34 38 35 63 23 55 -29 112 -38 155 -26 44 12 96 54 117 91 11 21 9 21 -22
-5 -30 -25 -39 -28 -91 -24 -47 4 -68 11 -115 44 l-58 40 3 53 c6 117 84 238
180 279 49 21 49 21 88 2 65 -33 129 -25 182 23 30 28 28 39 -5 21 -37 -19
-70 -17 -119 5 -78 35 -114 113 -95 203 16 72 53 129 133 203 168 156 330 199
515 140z m1029 -366 c146 -70 177 -288 57 -401 -63 -60 -165 -83 -257 -57 -48
13 -123 82 -147 134 -25 55 -24 147 2 205 27 60 64 97 124 127 42 20 60 23
114 19 35 -3 83 -15 107 -27z"/>
<path d="M1784 3271 c-137 -101 -201 -256 -176 -428 11 -75 40 -189 47 -181 1
1 -2 32 -7 68 -27 187 38 411 160 543 33 35 25 34 -24 -2z"/>
<path d="M4120 4044 c6 -14 10 -54 10 -88 l0 -63 -67 -77 c-136 -154 -152
-176 -164 -218 -25 -93 10 -208 83 -273 63 -58 120 -80 208 -80 87 0 131 19
196 82 64 62 84 114 84 214 0 70 -5 95 -29 150 -52 122 -172 275 -275 350 -48
36 -58 36 -46 3z"/>
<path d="M4285 3128 c-22 -5 -88 -7 -147 -5 l-107 6 -25 -82 c-36 -120 -73
-312 -93 -477 -22 -184 -25 -737 -5 -905 46 -381 108 -598 197 -691 57 -61 93
-61 150 0 227 236 303 1380 134 2015 -31 117 -44 152 -57 150 -4 -1 -25 -5
-47 -11z"/>
</g>
</svg>
